<?xml version="1.0" standalone="no"?>
<!DOCTYPE svg PUBLIC "-//W3C//DTD SVG 20010904//EN"
 "http://www.w3.org/TR/2001/REC-SVG-20010904/DTD/svg10.dtd">
<svg version="1.0" xmlns="http://www.w3.org/2000/svg"
 width="270.000000pt" height="270.000000pt" viewBox="0 0 270.000000 270.000000"
 preserveAspectRatio="xMidYMid meet">

<g transform="translate(0.000000,270.000000) scale(0.100000,-0.100000)"
fill="#000000" stroke="none">
<path d="M0 1350 l0 -1350 1350 0 1350 0 0 1350 0 1350 -1350 0 -1350 0 0
-1350z m1088 766 c-2 -23 -8 -31 -23 -31 -24 0 -34 48 -14 71 18 22 41 -2 37
-40z m97 13 c0 -24 -5 -34 -15 -34 -16 0 -25 37 -16 62 10 26 31 8 31 -28z
m143 15 c12 -8 22 -23 22 -33 0 -16 -29 -49 -57 -65 -34 -19 -72 38 -52 77 22
40 50 47 87 21z m-344 -16 c23 -32 20 -54 -9 -76 -30 -24 -60 -19 -81 13 -38
58 51 119 90 63z m1126 2 c24 -24 26 -77 3 -102 -22 -24 -75 -23 -98 2 -59 65
33 162 95 100z m-1370 -400 l0 -360 -60 0 -60 0 0 360 0 360 60 0 60 0 0 -360z
m790 165 l0 -195 -25 0 -25 0 0 195 0 195 25 0 25 0 0 -195z m224 180 c137
-29 232 -100 288 -213 30 -60 33 -75 33 -157 0 -72 -5 -100 -23 -139 -33 -72
-82 -128 -143 -161 -50 -28 -62 -30 -181 -33 l-128 -4 0 91 0 91 75 0 c42 0
90 6 109 14 82 34 118 143 76 230 -32 68 -69 86 -174 86 l-86 0 0 105 0 105
43 0 c23 0 73 -7 111 -15z m-334 -106 l0 -92 -97 -116 c-54 -63 -116 -136
-138 -161 -22 -25 -50 -59 -63 -75 l-23 -29 -27 34 c-15 19 -80 99 -144 178
l-118 144 0 96 c0 83 2 94 14 82 8 -8 69 -82 136 -165 68 -82 126 -154 130
-158 4 -5 76 73 161 172 85 99 157 180 162 180 4 1 7 -40 7 -90z m-361 42 c29
-18 4 -41 -45 -41 l-47 0 23 25 c24 26 45 31 69 16z m211 2 c0 -21 -37 -43
-72 -43 -41 0 -63 24 -37 41 16 10 109 12 109 2z m-125 -107 c13 -19 13 -28 4
-50 -7 -14 -21 -28 -31 -32 -27 -8 -68 22 -68 51 0 53 66 75 95 31z m-595
-151 c0 -21 -5 -25 -30 -25 -19 0 -33 6 -37 16 -7 19 13 34 45 34 17 0 22 -6
22 -25z m1670 10 c17 -21 3 -35 -36 -35 -26 0 -34 4 -34 18 0 10 3 22 7 25 12
12 50 7 63 -8z m-800 -35 c0 -27 -3 -30 -32 -30 l-32 0 29 30 c16 17 30 30 32
30 2 0 3 -13 3 -30z m-560 -597 l0 -553 -25 0 -25 0 0 583 0 582 24 -30 25
-30 1 -552z m-310 522 c0 -23 -4 -25 -45 -25 -33 0 -47 5 -52 16 -8 21 14 34
60 34 33 0 37 -3 37 -25z m1670 10 c17 -21 3 -35 -36 -35 -26 0 -34 4 -34 18
0 10 3 22 7 25 12 12 50 7 63 -8z m-800 -350 l0 -305 -60 0 -60 0 0 305 0 305
60 0 60 0 0 -305z m110 0 l0 -305 -25 0 -25 0 0 305 0 305 25 0 25 0 0 -305z
m-1020 245 c55 -55 -24 -135 -82 -83 -25 23 -23 68 4 87 30 21 54 20 78 -4z
m1748 -33 c4 -20 -25 -34 -40 -19 -15 15 -1 44 19 40 10 -2 19 -11 21 -21z
m-1114 -82 c26 30 51 55 55 55 4 0 6 -13 3 -30 -2 -17 -25 -52 -56 -86 l-52
-57 -52 60 c-37 44 -52 69 -52 89 1 28 2 28 54 -29 l53 -57 47 55z m1084 -21
c32 -22 43 -57 31 -94 -29 -82 -153 -62 -153 25 0 67 70 106 122 69z m-1703
-29 c14 -13 25 -36 25 -50 0 -28 -40 -75 -64 -75 -43 0 -86 43 -86 86 0 24 47
64 75 64 14 0 37 -11 50 -25z m502 -60 l68 -75 68 76 c65 73 67 74 67 44 0
-22 -12 -46 -42 -81 -34 -38 -42 -55 -40 -79 4 -39 -13 -60 -48 -60 -34 0 -63
31 -58 63 2 18 -11 39 -50 81 -33 36 -52 67 -52 82 0 13 4 24 9 24 5 0 40 -34
78 -75z m1011 23 c-3 -23 -27 -31 -49 -18 -10 7 -10 11 0 24 21 25 53 21 49
-6z m-133 -82 c124 -57 197 -210 173 -361 -18 -118 -106 -234 -215 -285 -55
-26 -160 -50 -220 -50 l-43 0 0 110 0 110 83 0 c77 0 87 3 124 29 72 52 93
150 48 226 -32 55 -80 75 -180 75 l-75 0 0 85 0 85 128 0 c112 0 133 -3 177
-24z m-1165 -341 l0 -355 -60 0 -60 0 0 348 c0 192 3 352 7 355 3 4 30 7 60 7
l53 0 0 -355z m1525 275 c0 -12 -17 -16 -80 -18 -72 -2 -81 -1 -93 18 -12 20
-11 21 80 18 75 -2 93 -6 93 -18z m-1715 -35 c0 -38 -3 -45 -19 -45 -11 0 -27
7 -35 16 -31 31 -13 74 31 74 21 0 23 -5 23 -45z m470 -39 l71 -74 70 74 c69
73 69 73 69 41 0 -27 -19 -52 -120 -161 l-120 -129 0 -153 0 -154 -25 0 -25 0
0 160 0 159 61 66 62 65 -62 64 c-43 45 -61 72 -61 90 0 14 2 26 4 26 2 0 36
-33 76 -74z m1155 -89 c0 -26 -20 -25 -23 2 -3 16 1 22 10 19 7 -3 13 -12 13
-21z m-1627 -9 c-3 -20 -8 -23 -43 -20 -74 6 -73 42 1 42 41 0 45 -2 42 -22z
m1237 -77 c-4 -14 -12 -32 -18 -39 -31 -38 -127 -39 -127 -2 0 17 6 20 38 18
51 -2 62 7 62 46 0 44 11 52 33 25 12 -16 16 -31 12 -48z m-595 -166 l0 -215
-25 0 -25 0 0 191 c0 165 2 193 18 214 9 14 20 25 25 25 4 0 7 -97 7 -215z
m230 -40 l0 -175 -60 0 -60 0 0 175 0 175 60 0 60 0 0 -175z m110 0 l0 -175
-25 0 -25 0 0 175 0 175 25 0 25 0 0 -175z m-440 -10 l0 -165 -25 0 -25 0 0
141 c0 118 3 144 18 164 9 14 20 25 25 25 4 0 7 -74 7 -165z m-540 110 c0 -21
-5 -25 -29 -25 -17 0 -33 5 -36 10 -13 21 4 40 35 40 25 0 30 -4 30 -25z
m1655 0 c0 -14 -8 -21 -27 -23 -24 -3 -28 0 -28 23 0 23 4 26 28 23 19 -2 27
-9 27 -23z m-97 -181 c42 -29 17 -124 -32 -124 -30 0 -67 20 -77 43 -9 21 -6
28 23 59 38 40 54 45 86 22z"/>
<path d="M1280 2100 c0 -5 7 -10 16 -10 8 0 12 5 9 10 -3 6 -10 10 -16 10 -5
0 -9 -4 -9 -10z"/>
<path d="M2045 2090 c-4 -7 -3 -16 3 -22 14 -14 45 -2 40 15 -6 16 -34 21 -43
7z"/>
<path d="M1945 1744 c-19 -20 -16 -63 6 -77 26 -16 68 0 75 29 12 48 -46 83
-81 48z"/>
<path d="M455 1521 c-6 -11 9 -23 19 -14 9 9 7 23 -3 23 -6 0 -12 -4 -16 -9z"/>
<path d="M2162 1378 c-18 -18 -15 -36 7 -48 15 -7 23 -6 35 6 9 8 16 19 16 23
0 11 -23 31 -35 31 -6 0 -16 -5 -23 -12z"/>
<path d="M454 1355 c-4 -9 -2 -21 4 -27 15 -15 44 -1 40 19 -4 23 -36 29 -44
8z"/>
<path d="M1952 1014 c-30 -21 -29 -59 3 -80 23 -15 27 -15 50 0 32 21 33 59 3
80 -12 9 -25 16 -28 16 -3 0 -16 -7 -28 -16z"/>
<path d="M2045 630 c-8 -13 3 -30 20 -30 14 0 27 24 18 34 -10 9 -31 7 -38 -4z"/>
</g>
</svg>
